<svg width="104" height="67" viewBox="0 0 104 67" fill="none" xmlns="http://www.w3.org/2000/svg">
<path d="M32.5138 49.9231L33.0251 50.7825L32.5138 49.9231ZM46.0138 65.4231L46.053 66.4223L46.0138 65.4231ZM103.014 29.9231L91.8894 33.0186L100.132 41.1048L103.014 29.9231ZM1.02242 5.2919C-0.482942 16.6658 -0.787336 32.6967 3.35417 43.5788C5.4304 49.0342 8.69863 53.383 13.6798 55.0377C18.6525 56.6897 25.0132 55.5491 33.0251 50.7825L32.0025 49.0637C24.2143 53.6972 18.4875 54.5274 14.3103 53.1397C10.1414 51.7549 7.19715 48.0536 5.22338 42.8674C1.26489 32.4662 1.51049 16.8471 3.00513 5.55432L1.02242 5.2919ZM33.0251 50.7825C53.0037 38.8965 60.0457 23.0789 59.2612 12.226C58.8708 6.82591 56.5039 2.49291 52.6047 0.773728C48.6744 -0.959197 43.6421 0.157313 38.3645 4.66255L39.6631 6.18368C44.6355 1.93891 48.8532 1.30542 51.7979 2.60374C54.7737 3.91581 56.9068 7.39531 57.2664 12.3702C57.9818 22.2673 51.5239 37.4497 32.0025 49.0637L33.0251 50.7825ZM38.3645 4.66255C27.8144 13.6688 23.1214 29.2665 24.2676 42.4472C24.8418 49.0513 26.8891 55.1541 30.5062 59.565C34.1501 64.0086 39.3527 66.6851 46.053 66.4223L45.9746 64.4239C39.9249 64.6611 35.315 62.2751 32.0527 58.2968C28.7635 54.2858 26.8108 48.6075 26.26 42.274C25.1562 29.5798 29.7132 14.6775 39.6631 6.18368L38.3645 4.66255ZM46.053 66.4223C54.8531 66.0772 64.567 61.7085 73.584 56.0002C82.6259 50.2761 91.0863 43.1278 97.4054 37.0675L96.0211 35.624C89.7669 41.622 81.4117 48.6777 72.5142 54.3104C63.5918 59.9588 54.2425 64.0996 45.9746 64.4239L46.053 66.4223Z" fill="url(#paint0_linear_624_511)"/>
<defs>
<linearGradient id="paint0_linear_624_511" x1="1" y1="1" x2="111.148" y2="45.1449" gradientUnits="userSpaceOnUse">
<stop stop-color="#E9F4FF"/>
<stop offset="1" stop-color="#D0DEFF"/>
</linearGradient>
</defs>
</svg>
