<svg width="20" height="16" viewBox="0 0 20 16" fill="none" xmlns="http://www.w3.org/2000/svg">
<path d="M18.3333 0.5H1.66667C0.75 0.5 0 1.25 0 2.16667V13.8333C0 14.75 0.75 15.5 1.66667 15.5H18.3333C19.25 15.5 19.9917 14.75 19.9917 13.8333L20 2.16667C20 1.25 19.25 0.5 18.3333 0.5ZM18.3333 13.8333H1.66667V2.16667H18.3333V13.8333ZM17.5 3H11.6667V7.16667H17.5V3ZM16.6667 4.66667L14.5833 6.125L12.5 4.66667V3.83333L14.5833 5.29167L16.6667 3.83333V4.66667ZM7.5 8C8.875 8 10 6.875 10 5.5C10 4.125 8.875 3 7.5 3C6.125 3 5 4.125 5 5.5C5 6.875 6.125 8 7.5 8ZM7.5 4.66667C7.95833 4.66667 8.33333 5.04167 8.33333 5.5C8.33333 5.95833 7.95833 6.33333 7.5 6.33333C7.04167 6.33333 6.66667 5.95833 6.66667 5.5C6.66667 5.04167 7.04167 4.66667 7.5 4.66667ZM12.5 11.825C12.5 9.74167 9.19167 8.84167 7.5 8.84167C5.80833 8.84167 2.5 9.74167 2.5 11.825V13H12.5V11.825ZM4.56667 11.3333C5.18333 10.9167 6.41667 10.5 7.5 10.5C8.58333 10.5 9.80833 10.9083 10.4333 11.3333H4.56667Z" fill="url(#paint0_linear_612_150)"/>
<defs>
<linearGradient id="paint0_linear_612_150" x1="0" y1="0.5" x2="21.4232" y2="2.92448" gradientUnits="userSpaceOnUse">
<stop stop-color="#62AEF1"/>
<stop offset="1" stop-color="#0544DA"/>
</linearGradient>
</defs>
</svg>
