<svg width="92" height="92" viewBox="0 0 92 92" fill="none" xmlns="http://www.w3.org/2000/svg">
<g filter="url(#filter0_d_620_96)">
<circle cx="46" cy="42" r="22" fill="#FEFEFE"/>
</g>
<g clip-path="url(#clip0_620_96)">
<path d="M45.8167 40.9917C43.7358 40.4508 43.0667 39.8917 43.0667 39.0208C43.0667 38.0217 43.9925 37.325 45.5417 37.325C47.1733 37.325 47.7783 38.1042 47.8333 39.25H49.8592C49.795 37.6733 48.8325 36.225 46.9167 35.7575V33.75H44.1667V35.73C42.3883 36.115 40.9583 37.27 40.9583 39.0392C40.9583 41.1567 42.7092 42.2108 45.2667 42.825C47.5583 43.375 48.0167 44.1817 48.0167 45.0342C48.0167 45.6667 47.5675 46.675 45.5417 46.675C43.6533 46.675 42.9108 45.8317 42.81 44.75H40.7933C40.9033 46.7575 42.4067 47.885 44.1667 48.2608V50.25H46.9167V48.2792C48.7042 47.94 50.125 46.9042 50.125 45.025C50.125 42.4217 47.8975 41.5325 45.8167 40.9917Z" fill="url(#paint0_linear_620_96)"/>
</g>
<defs>
<filter id="filter0_d_620_96" x="0" y="0" width="92" height="92" filterUnits="userSpaceOnUse" color-interpolation-filters="sRGB">
<feFlood flood-opacity="0" result="BackgroundImageFix"/>
<feColorMatrix in="SourceAlpha" type="matrix" values="0 0 0 0 0 0 0 0 0 0 0 0 0 0 0 0 0 0 127 0" result="hardAlpha"/>
<feOffset dy="4"/>
<feGaussianBlur stdDeviation="12"/>
<feComposite in2="hardAlpha" operator="out"/>
<feColorMatrix type="matrix" values="0 0 0 0 0.225833 0 0 0 0 0.225833 0 0 0 0 0.225833 0 0 0 0.1 0"/>
<feBlend mode="normal" in2="BackgroundImageFix" result="effect1_dropShadow_620_96"/>
<feBlend mode="normal" in="SourceGraphic" in2="effect1_dropShadow_620_96" result="shape"/>
</filter>
<linearGradient id="paint0_linear_620_96" x1="40.7933" y1="33.75" x2="50.8938" y2="34.2349" gradientUnits="userSpaceOnUse">
<stop stop-color="#62AEF1"/>
<stop offset="1" stop-color="#0544DA"/>
</linearGradient>
<clipPath id="clip0_620_96">
<rect width="22" height="22" fill="white" transform="translate(35 31)"/>
</clipPath>
</defs>
</svg>
