<svg width="90" height="30" viewBox="0 0 90 30" fill="none" xmlns="http://www.w3.org/2000/svg">
<rect width="90" height="30" rx="5" fill="#62AEF1" fill-opacity="0.2"/>
<g clip-path="url(#clip0_620_243)">
<path d="M21.6666 9.99984H19.1666V8.33317C19.1666 7.40817 18.425 6.6665 17.5 6.6665H12.5C11.575 6.6665 10.8333 7.40817 10.8333 8.33317V9.99984H8.33329C7.40829 9.99984 6.66663 10.7415 6.66663 11.6665V20.8332C6.66663 21.7582 7.40829 22.4998 8.33329 22.4998H21.6666C22.5916 22.4998 23.3333 21.7582 23.3333 20.8332V11.6665C23.3333 10.7415 22.5916 9.99984 21.6666 9.99984ZM12.5 8.33317H17.5V9.99984H12.5V8.33317ZM21.6666 20.8332H8.33329V19.1665H21.6666V20.8332ZM21.6666 16.6665H8.33329V11.6665H10.8333V13.3332H12.5V11.6665H17.5V13.3332H19.1666V11.6665H21.6666V16.6665Z" fill="#62AEF1"/>
</g>
<path d="M36 10.624V11.98H32.508V14.128H35.184V15.46H32.508V19H30.828V10.624H36ZM43.4673 12.352V19H41.7753V18.16C41.5593 18.448 41.2753 18.676 40.9233 18.844C40.5793 19.004 40.2033 19.084 39.7953 19.084C39.2753 19.084 38.8153 18.976 38.4153 18.76C38.0153 18.536 37.6993 18.212 37.4673 17.788C37.2433 17.356 37.1313 16.844 37.1313 16.252V12.352H38.8113V16.012C38.8113 16.54 38.9433 16.948 39.2073 17.236C39.4713 17.516 39.8313 17.656 40.2873 17.656C40.7513 17.656 41.1153 17.516 41.3793 17.236C41.6433 16.948 41.7753 16.54 41.7753 16.012V12.352H43.4673ZM46.8049 10.12V19H45.1249V10.12H46.8049ZM50.1447 10.12V19H48.4647V10.12H50.1447ZM60.3639 10.624V11.98H58.1319V19H56.4519V11.98H54.2199V10.624H60.3639ZM62.4417 11.56C62.1457 11.56 61.8977 11.468 61.6977 11.284C61.5057 11.092 61.4097 10.856 61.4097 10.576C61.4097 10.296 61.5057 10.064 61.6977 9.88C61.8977 9.688 62.1457 9.592 62.4417 9.592C62.7377 9.592 62.9817 9.688 63.1737 9.88C63.3737 10.064 63.4737 10.296 63.4737 10.576C63.4737 10.856 63.3737 11.092 63.1737 11.284C62.9817 11.468 62.7377 11.56 62.4417 11.56ZM63.2697 12.352V19H61.5897V12.352H63.2697ZM73.1856 12.256C74.0016 12.256 74.6576 12.508 75.1536 13.012C75.6576 13.508 75.9096 14.204 75.9096 15.1V19H74.2296V15.328C74.2296 14.808 74.0976 14.412 73.8336 14.14C73.5696 13.86 73.2096 13.72 72.7536 13.72C72.2976 13.72 71.9336 13.86 71.6616 14.14C71.3976 14.412 71.2656 14.808 71.2656 15.328V19H69.5856V15.328C69.5856 14.808 69.4536 14.412 69.1896 14.14C68.9256 13.86 68.5656 13.72 68.1096 13.72C67.6456 13.72 67.2776 13.86 67.0056 14.14C66.7416 14.412 66.6096 14.808 66.6096 15.328V19H64.9296V12.352H66.6096V13.156C66.8256 12.876 67.1016 12.656 67.4376 12.496C67.7816 12.336 68.1576 12.256 68.5656 12.256C69.0856 12.256 69.5496 12.368 69.9576 12.592C70.3656 12.808 70.6816 13.12 70.9056 13.528C71.1216 13.144 71.4336 12.836 71.8416 12.604C72.2576 12.372 72.7056 12.256 73.1856 12.256ZM83.6838 15.532C83.6838 15.772 83.6678 15.988 83.6358 16.18H78.7758C78.8158 16.66 78.9838 17.036 79.2798 17.308C79.5758 17.58 79.9398 17.716 80.3718 17.716C80.9958 17.716 81.4398 17.448 81.7038 16.912H83.5158C83.3238 17.552 82.9558 18.08 82.4118 18.496C81.8678 18.904 81.1998 19.108 80.4078 19.108C79.7678 19.108 79.1918 18.968 78.6798 18.688C78.1758 18.4 77.7798 17.996 77.4918 17.476C77.2118 16.956 77.0718 16.356 77.0718 15.676C77.0718 14.988 77.2118 14.384 77.4918 13.864C77.7718 13.344 78.1638 12.944 78.6678 12.664C79.1718 12.384 79.7518 12.244 80.4078 12.244C81.0398 12.244 81.6038 12.38 82.0998 12.652C82.6038 12.924 82.9918 13.312 83.2638 13.816C83.5438 14.312 83.6838 14.884 83.6838 15.532ZM81.9438 15.052C81.9358 14.62 81.7798 14.276 81.4758 14.02C81.1718 13.756 80.7998 13.624 80.3598 13.624C79.9438 13.624 79.5918 13.752 79.3038 14.008C79.0238 14.256 78.8518 14.604 78.7878 15.052H81.9438Z" fill="#62AEF1"/>
<defs>
<clipPath id="clip0_620_243">
<rect width="20" height="20" fill="white" transform="translate(5 5)"/>
</clipPath>
</defs>
</svg>
