<svg width="76" height="30" viewBox="0 0 76 30" fill="none" xmlns="http://www.w3.org/2000/svg">
<rect width="76" height="30" rx="5" fill="#E141EE" fill-opacity="0.08"/>
<g clip-path="url(#clip0_620_268)">
<path d="M15 6.6665C11.775 6.6665 9.16663 9.27484 9.16663 12.4998C9.16663 16.8748 15 23.3332 15 23.3332C15 23.3332 20.8333 16.8748 20.8333 12.4998C20.8333 9.27484 18.225 6.6665 15 6.6665ZM10.8333 12.4998C10.8333 10.1998 12.7 8.33317 15 8.33317C17.3 8.33317 19.1666 10.1998 19.1666 12.4998C19.1666 14.8998 16.7666 18.4915 15 20.7332C13.2666 18.5082 10.8333 14.8748 10.8333 12.4998Z" fill="#C81DD7"/>
<path d="M15 14.5832C16.1506 14.5832 17.0833 13.6504 17.0833 12.4998C17.0833 11.3492 16.1506 10.4165 15 10.4165C13.8494 10.4165 12.9166 11.3492 12.9166 12.4998C12.9166 13.6504 13.8494 14.5832 15 14.5832Z" fill="#C81DD7"/>
</g>
<path d="M37.776 10.624V19H36.096V15.436H32.508V19H30.828V10.624H32.508V14.068H36.096V10.624H37.776ZM45.7896 12.352L41.6736 22.144H39.8856L41.3256 18.832L38.6616 12.352H40.5456L42.2616 16.996L44.0016 12.352H45.7896ZM48.3752 13.324C48.5912 13.004 48.8872 12.744 49.2632 12.544C49.6472 12.344 50.0832 12.244 50.5712 12.244C51.1392 12.244 51.6512 12.384 52.1072 12.664C52.5712 12.944 52.9352 13.344 53.1992 13.864C53.4712 14.376 53.6072 14.972 53.6072 15.652C53.6072 16.332 53.4712 16.936 53.1992 17.464C52.9352 17.984 52.5712 18.388 52.1072 18.676C51.6512 18.964 51.1392 19.108 50.5712 19.108C50.0752 19.108 49.6392 19.012 49.2632 18.82C48.8952 18.62 48.5992 18.364 48.3752 18.052V19H46.6952V10.12H48.3752V13.324ZM51.8912 15.652C51.8912 15.252 51.8072 14.908 51.6392 14.62C51.4792 14.324 51.2632 14.1 50.9912 13.948C50.7272 13.796 50.4392 13.72 50.1272 13.72C49.8232 13.72 49.5352 13.8 49.2632 13.96C48.9992 14.112 48.7832 14.336 48.6152 14.632C48.4552 14.928 48.3752 15.276 48.3752 15.676C48.3752 16.076 48.4552 16.424 48.6152 16.72C48.7832 17.016 48.9992 17.244 49.2632 17.404C49.5352 17.556 49.8232 17.632 50.1272 17.632C50.4392 17.632 50.7272 17.552 50.9912 17.392C51.2632 17.232 51.4792 17.004 51.6392 16.708C51.8072 16.412 51.8912 16.06 51.8912 15.652ZM56.508 13.384C56.724 13.032 57.004 12.756 57.348 12.556C57.7 12.356 58.1 12.256 58.548 12.256V14.02H58.104C57.576 14.02 57.176 14.144 56.904 14.392C56.64 14.64 56.508 15.072 56.508 15.688V19H54.828V12.352H56.508V13.384ZM60.5316 11.56C60.2356 11.56 59.9876 11.468 59.7876 11.284C59.5956 11.092 59.4996 10.856 59.4996 10.576C59.4996 10.296 59.5956 10.064 59.7876 9.88C59.9876 9.688 60.2356 9.592 60.5316 9.592C60.8276 9.592 61.0716 9.688 61.2636 9.88C61.4636 10.064 61.5636 10.296 61.5636 10.576C61.5636 10.856 61.4636 11.092 61.2636 11.284C61.0716 11.468 60.8276 11.56 60.5316 11.56ZM61.3596 12.352V19H59.6796V12.352H61.3596ZM62.5874 15.652C62.5874 14.98 62.7194 14.384 62.9834 13.864C63.2554 13.344 63.6234 12.944 64.0874 12.664C64.5514 12.384 65.0674 12.244 65.6354 12.244C66.0674 12.244 66.4794 12.34 66.8714 12.532C67.2634 12.716 67.5754 12.964 67.8074 13.276V10.12H69.5114V19H67.8074V18.016C67.5994 18.344 67.3074 18.608 66.9314 18.808C66.5554 19.008 66.1194 19.108 65.6234 19.108C65.0634 19.108 64.5514 18.964 64.0874 18.676C63.6234 18.388 63.2554 17.984 62.9834 17.464C62.7194 16.936 62.5874 16.332 62.5874 15.652ZM67.8194 15.676C67.8194 15.268 67.7394 14.92 67.5794 14.632C67.4194 14.336 67.2034 14.112 66.9314 13.96C66.6594 13.8 66.3674 13.72 66.0554 13.72C65.7434 13.72 65.4554 13.796 65.1914 13.948C64.9274 14.1 64.7114 14.324 64.5434 14.62C64.3834 14.908 64.3034 15.252 64.3034 15.652C64.3034 16.052 64.3834 16.404 64.5434 16.708C64.7114 17.004 64.9274 17.232 65.1914 17.392C65.4634 17.552 65.7514 17.632 66.0554 17.632C66.3674 17.632 66.6594 17.556 66.9314 17.404C67.2034 17.244 67.4194 17.02 67.5794 16.732C67.7394 16.436 67.8194 16.084 67.8194 15.676Z" fill="#C81DD7"/>
<defs>
<clipPath id="clip0_620_268">
<rect width="20" height="20" fill="white" transform="translate(5 5)"/>
</clipPath>
</defs>
</svg>
