<svg width="20" height="20" viewBox="0 0 20 20" fill="none" xmlns="http://www.w3.org/2000/svg">
<g clip-path="url(#clip0_680_243)">
<path d="M9.99996 1.6665C6.77496 1.6665 4.16663 4.27484 4.16663 7.49984C4.16663 11.8748 9.99996 18.3332 9.99996 18.3332C9.99996 18.3332 15.8333 11.8748 15.8333 7.49984C15.8333 4.27484 13.225 1.6665 9.99996 1.6665ZM9.99996 9.58317C8.84996 9.58317 7.91663 8.64984 7.91663 7.49984C7.91663 6.34984 8.84996 5.4165 9.99996 5.4165C11.15 5.4165 12.0833 6.34984 12.0833 7.49984C12.0833 8.64984 11.15 9.58317 9.99996 9.58317Z" fill="url(#paint0_linear_680_243)"/>
</g>
<defs>
<linearGradient id="paint0_linear_680_243" x1="4.16663" y1="1.6665" x2="16.779" y2="2.41587" gradientUnits="userSpaceOnUse">
<stop stop-color="#0544DA"/>
<stop offset="1" stop-color="#0544DA"/>
</linearGradient>
<clipPath id="clip0_680_243">
<rect width="20" height="20" fill="white"/>
</clipPath>
</defs>
</svg>
