<svg width="103" height="44" viewBox="0 0 103 44" fill="none" xmlns="http://www.w3.org/2000/svg">
<path d="M35.5244 2.70973L5.85978 17.3997C5.40708 17.6239 5.02632 17.9689 4.76029 18.3961C4.49426 18.8232 4.3535 19.3155 4.35383 19.8177C4.35383 21.3218 5.5874 22.5373 7.10383 22.5191C11.1751 22.4684 18.5373 22.4307 20.5487 22.7622C23.3707 23.225 22.272 26.0499 22.272 26.0499C19.6464 32.3432 5.50359 38.5845 5.50359 38.5845C0.841684 34.7781 0.202637 26.5621 0.202637 26.5595L0.209184 16.8043C1.0093 6.28733 8.11871 2.71493 8.11871 2.71493C10.1655 1.50983 12.6248 0.772734 15.1548 0.350234C17.4334 -0.0306661 19.7918 -0.00726625 21.9303 0.00573374C25.8091 0.0278337 29.0148 0.356734 30.0886 0.616734C32.5701 1.22123 35.5257 2.71103 35.5257 2.71103L35.5244 2.70973ZM8.33609 40.6424C8.33609 40.6424 11.293 42.1309 13.7745 42.7354C14.8484 42.9954 18.0541 43.3256 21.9329 43.3477C24.07 43.3607 26.4285 43.3841 28.7084 43.0032C31.2357 42.5781 33.6963 41.8423 35.7431 40.6372C35.7431 40.6372 42.8525 37.0648 43.6526 26.5491L43.6579 16.7952C43.6579 16.7952 43.0201 8.57403 38.3582 4.77023C38.3582 4.77023 24.2154 11.0102 21.5885 17.3035C21.5885 17.3035 20.4911 20.1284 23.3131 20.5925C25.3232 20.9227 32.6867 20.8837 36.7567 20.8343C37.372 20.8286 37.9712 21.0301 38.4564 21.4057C38.9416 21.7814 39.2844 22.3092 39.4287 22.9031C39.573 23.497 39.5104 24.1218 39.2511 24.6758C38.9917 25.2298 38.551 25.6803 38.0007 25.9537L8.33609 40.6424Z" fill="url(#paint0_linear_630_5)"/>
<path d="M65.4536 13.2568C65.4536 11.2054 65.4654 9.15528 65.4458 7.10388C65.4419 6.66838 65.582 6.52928 66.0194 6.53968C67.7283 6.58258 69.4372 6.48248 71.1448 6.60208C75.0695 6.87508 77.8365 9.83258 77.4161 14.0407C77.0298 17.9095 73.8752 19.9024 70.621 19.9089C69.085 19.9128 67.5489 19.8933 66.0141 19.9219C65.5728 19.9284 65.4405 19.801 65.4458 19.3681C65.4641 17.331 65.4536 15.2939 65.4536 13.2568ZM67.7086 13.1658C67.7086 14.5984 67.7126 16.0323 67.7047 17.4649C67.7047 17.7548 67.7676 17.929 68.1107 17.9199C69.0928 17.8978 70.0841 17.9576 71.061 17.8653C72.6141 17.7171 73.8857 17.0515 74.619 15.6059C75.076 14.7076 75.1297 13.7404 75.0904 12.7563C75.004 10.4839 73.4588 8.86278 71.1723 8.61578C70.1876 8.50788 69.2054 8.58328 68.2233 8.53648C67.8278 8.51698 67.6942 8.63658 67.7008 9.03828C67.7217 10.4137 67.71 11.7891 67.71 13.1658H67.7086ZM51.0646 13.2269C51.0646 11.1768 51.0751 9.12538 51.0554 7.07528C51.0515 6.65538 51.189 6.51368 51.6015 6.54228C52.0048 6.56828 52.4134 6.56178 52.818 6.54358C53.1795 6.52798 53.2934 6.67878 53.2895 7.02718C53.2777 8.54818 53.2986 10.0666 53.2764 11.5876C53.2698 11.9971 53.3851 12.1258 53.8094 12.1206C55.7776 12.0985 57.7484 12.1024 59.7192 12.1193C60.0925 12.1232 60.2208 12.0335 60.2169 11.6422C60.1933 10.1082 60.2182 8.57418 60.1985 7.04018C60.1933 6.66318 60.3111 6.52018 60.6909 6.54228C61.096 6.56828 61.5024 6.56828 61.9074 6.54228C62.3448 6.50848 62.4365 6.70088 62.4339 7.09608C62.4195 9.50628 62.426 11.9152 62.426 14.3241C62.426 16.0167 62.4169 17.7093 62.4339 19.4006C62.4365 19.7789 62.3448 19.9518 61.9284 19.9193C61.4946 19.8904 61.0594 19.8896 60.6254 19.9167C60.3007 19.9336 60.2011 19.8127 60.2038 19.4968C60.2169 17.8757 60.1946 16.2546 60.2182 14.6348C60.2247 14.2175 60.0924 14.0979 59.6773 14.1018C57.7218 14.1206 55.7662 14.1206 53.8107 14.1018C53.3811 14.0966 53.2751 14.2474 53.2803 14.6504C53.3 16.2273 53.2764 17.8055 53.296 19.3824C53.3013 19.7906 53.1834 19.9544 52.7578 19.918C52.3534 19.8857 51.947 19.8857 51.5426 19.918C51.1445 19.9492 51.058 19.7867 51.0607 19.424C51.0738 17.357 51.0672 15.2939 51.0672 13.2282H51.0646V13.2269ZM96.932 20.1676C93.4368 20.1845 90.8217 17.9004 90.3739 14.4281C90.0517 11.9412 90.6043 9.71688 92.4927 7.94368C94.8302 5.74668 98.9748 5.73758 101.163 7.90858C102.081 8.81858 102.592 9.94698 102.913 11.1742C102.975 11.4121 102.889 11.5122 102.66 11.5707C102.156 11.6968 101.653 11.8333 101.154 11.9867C100.875 12.0712 100.769 11.9672 100.697 11.7098C100.483 10.9298 100.168 10.1992 99.6584 9.55178C98.523 8.10878 96.3977 7.97878 94.9598 8.76658C93.5023 9.56478 92.8711 10.8869 92.6813 12.4638C92.5372 13.6572 92.6904 14.8038 93.2116 15.8971C94.5264 18.6583 98.18 18.7558 99.7003 17.1269C100.182 16.6108 100.494 15.9998 100.696 15.3329C100.779 15.0534 100.889 14.9299 101.217 15.0131C101.695 15.1314 102.179 15.2212 102.668 15.2822C103.007 15.3264 103.058 15.4551 102.969 15.7684C102.209 18.4802 100.072 20.126 97.2371 20.1663H96.932V20.1676ZM79.7969 13.2048V7.14028C79.7969 6.56308 79.8099 6.54748 80.3665 6.54748C83.0602 6.54748 85.7539 6.55398 88.4489 6.53838C88.8758 6.53708 89.0657 6.65538 89.0225 7.09998C88.9962 7.42923 88.9962 7.76003 89.0225 8.08928C89.046 8.45198 88.8928 8.55338 88.5405 8.55078C86.5854 8.53778 84.6303 8.54428 82.6739 8.54428C82.2601 8.54428 82.0519 8.74578 82.0505 9.14878V11.9022C82.0505 12.4885 82.0532 12.4898 82.6634 12.4898H87.0961C87.7299 12.4898 87.73 12.4924 87.73 13.1359C87.73 13.4089 87.7077 13.6819 87.7339 13.9523C87.7758 14.3592 87.6357 14.4983 87.2061 14.4931C85.657 14.4684 84.1065 14.4983 82.5573 14.4749C82.1501 14.4684 82.0375 14.5997 82.0427 14.9884C82.061 16.4509 82.0375 17.9134 82.0558 19.3746C82.061 19.7776 81.951 19.9492 81.5202 19.9154C81.1013 19.885 80.6807 19.885 80.2617 19.9154C79.8925 19.9375 79.789 19.788 79.7903 19.4422C79.8034 17.7652 79.7969 16.0856 79.7969 14.4086V13.2048ZM56.6746 37.0611C55.1765 37.0494 53.9246 36.8271 52.7971 36.1147C51.1707 35.0877 50.7411 33.2339 51.2676 31.5361C51.3252 31.3463 51.4208 31.2761 51.6146 31.3294C52.1305 31.4737 52.6452 31.6206 53.1611 31.7558C53.3654 31.8104 53.3903 31.9248 53.3576 32.1094C53.3091 32.3902 53.2423 32.6697 53.2698 32.9622C53.3563 33.8852 53.8513 34.5144 54.7025 34.8459C55.8601 35.297 57.0465 35.3438 58.2303 34.9369C58.906 34.7029 59.4285 34.2817 59.5608 33.5368C59.7205 32.6398 59.3866 32.034 58.5289 31.6206C57.6698 31.2046 56.7191 31.1357 55.8025 30.9368C54.7954 30.7184 53.8028 30.4675 52.9254 29.8968C50.9507 28.6163 51.0201 25.6263 52.8534 24.2327C54.7025 22.8287 58.1242 22.8235 59.9641 24.2288C61.0078 25.0244 61.4661 26.1229 61.6128 27.3826C61.639 27.6218 61.5905 27.7596 61.3182 27.7921C60.8022 27.8519 60.2876 27.9312 59.7716 28.0053C59.5398 28.0378 59.4272 27.9455 59.3866 27.7141C59.3417 27.4599 59.2769 27.2095 59.1928 26.9653C58.7986 25.8239 57.954 25.2285 56.7741 25.0998C56.1717 25.0348 55.5589 25.0361 54.9735 25.2571C54.2533 25.5301 53.7648 25.9916 53.698 26.7859C53.626 27.614 54.0647 28.1379 54.7758 28.4837C55.6217 28.8945 56.5528 28.9829 57.4564 29.1701C58.4202 29.3703 59.3814 29.5731 60.2444 30.0814C61.3614 30.7418 61.9271 31.9976 61.8223 33.256C61.6521 35.3152 60.0545 36.4566 58.3809 36.8609C57.7602 37.0104 57.1264 37.0884 56.6746 37.0611ZM66.4751 29.9761C66.7763 29.6602 66.9936 29.4379 67.2045 29.2091C68.8636 27.4073 70.5241 25.6068 72.1741 23.7959C72.4059 23.5424 72.6495 23.4137 72.9991 23.4267C73.5648 23.4488 74.1305 23.4293 74.695 23.4358C74.8311 23.4358 75.0223 23.3708 75.0826 23.5372C75.1271 23.6646 74.9647 23.7517 74.8796 23.844C73.3095 25.534 71.7472 27.2305 70.1627 28.9049C69.8811 29.2013 69.8484 29.3989 70.0998 29.7369C70.8502 30.7379 71.5573 31.7727 72.288 32.788C72.5984 33.2209 72.9494 33.6239 73.3317 33.997C73.8346 34.4871 74.4055 34.8277 75.1428 34.777C75.4086 34.7601 75.5095 34.868 75.5055 35.1241C75.4964 35.4972 75.5055 35.8703 75.5055 36.2421C75.5029 36.7933 75.4309 36.8739 74.8888 36.8674C73.7429 36.8544 72.7333 36.4917 71.8821 35.7169C71.1186 35.0227 70.5084 34.2024 69.9178 33.3704C69.3829 32.6203 68.8625 31.8601 68.3569 31.0902C68.1761 30.8146 68.0622 30.8198 67.854 31.0551C67.4821 31.475 67.0892 31.8806 66.6911 32.2771C66.5222 32.4435 66.4725 32.6268 66.4738 32.8543C66.4803 34.0165 66.4646 35.1787 66.4829 36.3409C66.4895 36.6984 66.369 36.8245 66.0115 36.8024C65.606 36.7744 65.1991 36.7744 64.7936 36.8024C64.3851 36.8336 64.2345 36.7088 64.2476 36.2811C64.2764 35.2489 64.2567 34.2154 64.2567 33.1832V24.1027C64.2567 23.6555 64.4898 23.4319 64.9547 23.4319H65.8675C66.2734 23.4319 66.4751 23.6282 66.4764 24.0182L66.4751 29.9761ZM81.4547 29.1688C81.5988 29.0778 81.6524 28.9231 81.7363 28.7918C82.776 27.1369 83.8184 25.4833 84.8451 23.8193C85.0153 23.5398 85.2078 23.4137 85.5417 23.428C86.0616 23.4501 86.5841 23.4306 87.1053 23.4371C87.2585 23.4384 87.468 23.3734 87.544 23.5333C87.616 23.6854 87.4432 23.8154 87.3607 23.9428C85.8652 26.2451 84.371 28.5487 82.8624 30.8445C82.6497 31.1492 82.5389 31.5125 82.5455 31.8832C82.5639 33.3587 82.5429 34.8368 82.5586 36.3123C82.5639 36.6854 82.4513 36.8297 82.0636 36.8037C81.6447 36.7734 81.2241 36.7734 80.8052 36.8037C80.4045 36.8336 80.3207 36.6672 80.3246 36.3071C80.3429 34.816 80.3246 33.3249 80.3377 31.8325C80.3439 31.5322 80.257 31.2372 80.0889 30.9875C78.5698 28.6332 77.06 26.2711 75.5488 23.9103C75.4728 23.7933 75.3196 23.6659 75.3824 23.5333C75.461 23.3669 75.6653 23.4371 75.8172 23.4345C76.3384 23.4267 76.8609 23.4475 77.3821 23.4254C77.7095 23.4124 77.9098 23.5268 78.0827 23.8076C79.1041 25.4755 80.1426 27.1317 81.1784 28.7879C81.2596 28.9192 81.3133 29.0752 81.46 29.1662L81.4547 29.1688Z" fill="#0085FF"/>
<defs>
<linearGradient id="paint0_linear_630_5" x1="21.9316" y1="43.5986" x2="21.9316" y2="-2.69957" gradientUnits="userSpaceOnUse">
<stop stop-color="#082AC4"/>
<stop offset="0.07" stop-color="#0639D1"/>
<stop offset="0.2" stop-color="#0451E4"/>
<stop offset="0.32" stop-color="#035FEF"/>
<stop offset="0.42" stop-color="#0364F4"/>
<stop offset="0.43" stop-color="#0968F3"/>
<stop offset="0.54" stop-color="#2A82F2"/>
<stop offset="0.64" stop-color="#4497F2"/>
<stop offset="0.75" stop-color="#57A5F1"/>
<stop offset="0.86" stop-color="#62AEF1"/>
<stop offset="0.98" stop-color="#66B1F1"/>
</linearGradient>
</defs>
</svg>
