<svg width="94" height="30" viewBox="0 0 94 30" fill="none" xmlns="http://www.w3.org/2000/svg">
<rect width="94" height="30" rx="5" fill="#FCB852" fill-opacity="0.2"/>
<g clip-path="url(#clip0_620_289)">
<path d="M21.6666 9.99984H19.1666V8.33317C19.1666 7.40817 18.425 6.6665 17.5 6.6665H12.5C11.575 6.6665 10.8333 7.40817 10.8333 8.33317V9.99984H8.33329C7.40829 9.99984 6.66663 10.7415 6.66663 11.6665V20.8332C6.66663 21.7582 7.40829 22.4998 8.33329 22.4998H21.6666C22.5916 22.4998 23.3333 21.7582 23.3333 20.8332V11.6665C23.3333 10.7415 22.5916 9.99984 21.6666 9.99984ZM12.5 8.33317H17.5V9.99984H12.5V8.33317ZM21.6666 20.8332H8.33329V19.1665H21.6666V20.8332ZM21.6666 16.6665H8.33329V11.6665H10.8333V13.3332H12.5V11.6665H17.5V13.3332H19.1666V11.6665H21.6666V16.6665Z" fill="#FCB852"/>
</g>
<path d="M36.936 13.216C36.936 13.664 36.828 14.084 36.612 14.476C36.404 14.868 36.072 15.184 35.616 15.424C35.168 15.664 34.6 15.784 33.912 15.784H32.508V19H30.828V10.624H33.912C34.56 10.624 35.112 10.736 35.568 10.96C36.024 11.184 36.364 11.492 36.588 11.884C36.82 12.276 36.936 12.72 36.936 13.216ZM33.84 14.428C34.304 14.428 34.648 14.324 34.872 14.116C35.096 13.9 35.208 13.6 35.208 13.216C35.208 12.4 34.752 11.992 33.84 11.992H32.508V14.428H33.84ZM37.6968 15.652C37.6968 14.98 37.8288 14.384 38.0928 13.864C38.3648 13.344 38.7288 12.944 39.1848 12.664C39.6488 12.384 40.1648 12.244 40.7328 12.244C41.2288 12.244 41.6608 12.344 42.0288 12.544C42.4048 12.744 42.7048 12.996 42.9288 13.3V12.352H44.6208V19H42.9288V18.028C42.7128 18.34 42.4128 18.6 42.0288 18.808C41.6528 19.008 41.2168 19.108 40.7208 19.108C40.1608 19.108 39.6488 18.964 39.1848 18.676C38.7288 18.388 38.3648 17.984 38.0928 17.464C37.8288 16.936 37.6968 16.332 37.6968 15.652ZM42.9288 15.676C42.9288 15.268 42.8488 14.92 42.6888 14.632C42.5288 14.336 42.3128 14.112 42.0408 13.96C41.7688 13.8 41.4768 13.72 41.1648 13.72C40.8528 13.72 40.5648 13.796 40.3008 13.948C40.0368 14.1 39.8208 14.324 39.6528 14.62C39.4928 14.908 39.4128 15.252 39.4128 15.652C39.4128 16.052 39.4928 16.404 39.6528 16.708C39.8208 17.004 40.0368 17.232 40.3008 17.392C40.5728 17.552 40.8608 17.632 41.1648 17.632C41.4768 17.632 41.7688 17.556 42.0408 17.404C42.3128 17.244 42.5288 17.02 42.6888 16.732C42.8488 16.436 42.9288 16.084 42.9288 15.676ZM47.9416 13.384C48.1576 13.032 48.4376 12.756 48.7816 12.556C49.1336 12.356 49.5336 12.256 49.9816 12.256V14.02H49.5376C49.0096 14.02 48.6096 14.144 48.3376 14.392C48.0736 14.64 47.9416 15.072 47.9416 15.688V19H46.2616V12.352H47.9416V13.384ZM53.0692 13.732V16.948C53.0692 17.172 53.1212 17.336 53.2252 17.44C53.3372 17.536 53.5212 17.584 53.7772 17.584H54.5572V19H53.5012C52.0852 19 51.3772 18.312 51.3772 16.936V13.732H50.5852V12.352H51.3772V10.708H53.0692V12.352H54.5572V13.732H53.0692ZM64.3249 10.624V11.98H62.0929V19H60.4129V11.98H58.1809V10.624H64.3249ZM66.4027 11.56C66.1067 11.56 65.8587 11.468 65.6587 11.284C65.4667 11.092 65.3707 10.856 65.3707 10.576C65.3707 10.296 65.4667 10.064 65.6587 9.88C65.8587 9.688 66.1067 9.592 66.4027 9.592C66.6987 9.592 66.9427 9.688 67.1347 9.88C67.3347 10.064 67.4347 10.296 67.4347 10.576C67.4347 10.856 67.3347 11.092 67.1347 11.284C66.9427 11.468 66.6987 11.56 66.4027 11.56ZM67.2307 12.352V19H65.5507V12.352H67.2307ZM77.1465 12.256C77.9625 12.256 78.6185 12.508 79.1145 13.012C79.6185 13.508 79.8705 14.204 79.8705 15.1V19H78.1905V15.328C78.1905 14.808 78.0585 14.412 77.7945 14.14C77.5305 13.86 77.1705 13.72 76.7145 13.72C76.2585 13.72 75.8945 13.86 75.6225 14.14C75.3585 14.412 75.2265 14.808 75.2265 15.328V19H73.5465V15.328C73.5465 14.808 73.4145 14.412 73.1505 14.14C72.8865 13.86 72.5265 13.72 72.0705 13.72C71.6065 13.72 71.2385 13.86 70.9665 14.14C70.7025 14.412 70.5705 14.808 70.5705 15.328V19H68.8905V12.352H70.5705V13.156C70.7865 12.876 71.0625 12.656 71.3985 12.496C71.7425 12.336 72.1185 12.256 72.5265 12.256C73.0465 12.256 73.5105 12.368 73.9185 12.592C74.3265 12.808 74.6425 13.12 74.8665 13.528C75.0825 13.144 75.3945 12.836 75.8025 12.604C76.2185 12.372 76.6665 12.256 77.1465 12.256ZM87.6447 15.532C87.6447 15.772 87.6287 15.988 87.5967 16.18H82.7367C82.7767 16.66 82.9447 17.036 83.2407 17.308C83.5367 17.58 83.9007 17.716 84.3327 17.716C84.9567 17.716 85.4007 17.448 85.6647 16.912H87.4767C87.2847 17.552 86.9167 18.08 86.3727 18.496C85.8287 18.904 85.1607 19.108 84.3687 19.108C83.7287 19.108 83.1527 18.968 82.6407 18.688C82.1367 18.4 81.7407 17.996 81.4527 17.476C81.1727 16.956 81.0327 16.356 81.0327 15.676C81.0327 14.988 81.1727 14.384 81.4527 13.864C81.7327 13.344 82.1247 12.944 82.6287 12.664C83.1327 12.384 83.7127 12.244 84.3687 12.244C85.0007 12.244 85.5647 12.38 86.0607 12.652C86.5647 12.924 86.9527 13.312 87.2247 13.816C87.5047 14.312 87.6447 14.884 87.6447 15.532ZM85.9047 15.052C85.8967 14.62 85.7407 14.276 85.4367 14.02C85.1327 13.756 84.7607 13.624 84.3207 13.624C83.9047 13.624 83.5527 13.752 83.2647 14.008C82.9847 14.256 82.8127 14.604 82.7487 15.052H85.9047Z" fill="#FCB852"/>
<defs>
<clipPath id="clip0_620_289">
<rect width="20" height="20" fill="white" transform="translate(5 5)"/>
</clipPath>
</defs>
</svg>
