<svg width="66" height="42" viewBox="0 0 66 42" fill="none" xmlns="http://www.w3.org/2000/svg">
<path d="M13.2775 41.4168C15.36 41.4168 17.2791 40.2327 18.1775 38.3952L23.9758 26.7985C24.5475 25.6552 24.8333 24.4302 24.8333 23.1643V4.66683C24.8333 2.421 22.9958 0.583496 20.75 0.583496H4.41665C2.17081 0.583496 0.333313 2.421 0.333313 4.66683V21.0002C0.333313 23.246 2.17081 25.0835 4.41665 25.0835H12.5833L8.37748 33.4952C6.53998 37.1293 9.19415 41.4168 13.2775 41.4168ZM54.1108 41.4168C56.1933 41.4168 58.1125 40.2327 59.0108 38.3952L64.8092 26.7985C65.3808 25.6552 65.6666 24.4302 65.6666 23.1643V4.66683C65.6666 2.421 63.8291 0.583496 61.5833 0.583496H45.25C43.0041 0.583496 41.1666 2.421 41.1666 4.66683V21.0002C41.1666 23.246 43.0041 25.0835 45.25 25.0835H53.4166L49.2108 33.4952C47.3733 37.1293 50.0275 41.4168 54.1108 41.4168Z" fill="url(#paint0_linear_618_207)"/>
<defs>
<linearGradient id="paint0_linear_618_207" x1="0.333313" y1="0.583496" x2="69.9285" y2="10.0349" gradientUnits="userSpaceOnUse">
<stop stop-color="#62AEF1"/>
<stop offset="1" stop-color="#0544DA"/>
</linearGradient>
</defs>
</svg>
