<svg width="83" height="30" viewBox="0 0 83 30" fill="none" xmlns="http://www.w3.org/2000/svg">
<rect width="83" height="30" rx="5" fill="#95FF0E" fill-opacity="0.2"/>
<g clip-path="url(#clip0_620_144)">
<path d="M15 6.6665C11.775 6.6665 9.16663 9.27484 9.16663 12.4998C9.16663 16.8748 15 23.3332 15 23.3332C15 23.3332 20.8333 16.8748 20.8333 12.4998C20.8333 9.27484 18.225 6.6665 15 6.6665ZM10.8333 12.4998C10.8333 10.1998 12.7 8.33317 15 8.33317C17.3 8.33317 19.1666 10.1998 19.1666 12.4998C19.1666 14.8998 16.7666 18.4915 15 20.7332C13.2666 18.5082 10.8333 14.8748 10.8333 12.4998Z" fill="#4DD71D"/>
<path d="M15 14.5832C16.1506 14.5832 17.0833 13.6504 17.0833 12.4998C17.0833 11.3492 16.1506 10.4165 15 10.4165C13.8494 10.4165 12.9166 11.3492 12.9166 12.4998C12.9166 13.6504 13.8494 14.5832 15 14.5832Z" fill="#4DD71D"/>
</g>
<path d="M35.148 19L33.3 15.736H32.508V19H30.828V10.624H33.972C34.62 10.624 35.172 10.74 35.628 10.972C36.084 11.196 36.424 11.504 36.648 11.896C36.88 12.28 36.996 12.712 36.996 13.192C36.996 13.744 36.836 14.244 36.516 14.692C36.196 15.132 35.72 15.436 35.088 15.604L37.092 19H35.148ZM32.508 14.476H33.912C34.368 14.476 34.708 14.368 34.932 14.152C35.156 13.928 35.268 13.62 35.268 13.228C35.268 12.844 35.156 12.548 34.932 12.34C34.708 12.124 34.368 12.016 33.912 12.016H32.508V14.476ZM44.6955 15.532C44.6955 15.772 44.6795 15.988 44.6475 16.18H39.7875C39.8275 16.66 39.9955 17.036 40.2915 17.308C40.5875 17.58 40.9515 17.716 41.3835 17.716C42.0075 17.716 42.4515 17.448 42.7155 16.912H44.5275C44.3355 17.552 43.9675 18.08 43.4235 18.496C42.8795 18.904 42.2115 19.108 41.4195 19.108C40.7795 19.108 40.2035 18.968 39.6915 18.688C39.1875 18.4 38.7915 17.996 38.5035 17.476C38.2235 16.956 38.0835 16.356 38.0835 15.676C38.0835 14.988 38.2235 14.384 38.5035 13.864C38.7835 13.344 39.1755 12.944 39.6795 12.664C40.1835 12.384 40.7635 12.244 41.4195 12.244C42.0515 12.244 42.6155 12.38 43.1115 12.652C43.6155 12.924 44.0035 13.312 44.2755 13.816C44.5555 14.312 44.6955 14.884 44.6955 15.532ZM42.9555 15.052C42.9475 14.62 42.7915 14.276 42.4875 14.02C42.1835 13.756 41.8115 13.624 41.3715 13.624C40.9555 13.624 40.6035 13.752 40.3155 14.008C40.0355 14.256 39.8635 14.604 39.7995 15.052H42.9555ZM54.1778 12.256C54.9938 12.256 55.6498 12.508 56.1458 13.012C56.6498 13.508 56.9018 14.204 56.9018 15.1V19H55.2218V15.328C55.2218 14.808 55.0898 14.412 54.8258 14.14C54.5618 13.86 54.2018 13.72 53.7458 13.72C53.2898 13.72 52.9258 13.86 52.6538 14.14C52.3898 14.412 52.2578 14.808 52.2578 15.328V19H50.5778V15.328C50.5778 14.808 50.4458 14.412 50.1818 14.14C49.9178 13.86 49.5578 13.72 49.1018 13.72C48.6378 13.72 48.2698 13.86 47.9978 14.14C47.7338 14.412 47.6018 14.808 47.6018 15.328V19H45.9218V12.352H47.6018V13.156C47.8178 12.876 48.0938 12.656 48.4298 12.496C48.7738 12.336 49.1498 12.256 49.5578 12.256C50.0778 12.256 50.5418 12.368 50.9498 12.592C51.3578 12.808 51.6738 13.12 51.8978 13.528C52.1138 13.144 52.4258 12.836 52.8338 12.604C53.2498 12.372 53.6978 12.256 54.1778 12.256ZM61.448 19.108C60.808 19.108 60.232 18.968 59.72 18.688C59.208 18.4 58.804 17.996 58.508 17.476C58.22 16.956 58.076 16.356 58.076 15.676C58.076 14.996 58.224 14.396 58.52 13.876C58.824 13.356 59.236 12.956 59.756 12.676C60.276 12.388 60.856 12.244 61.496 12.244C62.136 12.244 62.716 12.388 63.236 12.676C63.756 12.956 64.164 13.356 64.46 13.876C64.764 14.396 64.916 14.996 64.916 15.676C64.916 16.356 64.76 16.956 64.448 17.476C64.144 17.996 63.728 18.4 63.2 18.688C62.68 18.968 62.096 19.108 61.448 19.108ZM61.448 17.644C61.752 17.644 62.036 17.572 62.3 17.428C62.572 17.276 62.788 17.052 62.948 16.756C63.108 16.46 63.188 16.1 63.188 15.676C63.188 15.044 63.02 14.56 62.684 14.224C62.356 13.88 61.952 13.708 61.472 13.708C60.992 13.708 60.588 13.88 60.26 14.224C59.94 14.56 59.78 15.044 59.78 15.676C59.78 16.308 59.936 16.796 60.248 17.14C60.568 17.476 60.968 17.644 61.448 17.644ZM68.1043 13.732V16.948C68.1043 17.172 68.1563 17.336 68.2603 17.44C68.3723 17.536 68.5563 17.584 68.8123 17.584H69.5923V19H68.5363C67.1203 19 66.4123 18.312 66.4123 16.936V13.732H65.6203V12.352H66.4123V10.708H68.1043V12.352H69.5923V13.732H68.1043ZM76.9807 15.532C76.9807 15.772 76.9647 15.988 76.9327 16.18H72.0727C72.1127 16.66 72.2807 17.036 72.5767 17.308C72.8727 17.58 73.2367 17.716 73.6687 17.716C74.2927 17.716 74.7367 17.448 75.0007 16.912H76.8127C76.6207 17.552 76.2527 18.08 75.7087 18.496C75.1647 18.904 74.4967 19.108 73.7047 19.108C73.0647 19.108 72.4887 18.968 71.9767 18.688C71.4727 18.4 71.0767 17.996 70.7887 17.476C70.5087 16.956 70.3687 16.356 70.3687 15.676C70.3687 14.988 70.5087 14.384 70.7887 13.864C71.0687 13.344 71.4607 12.944 71.9647 12.664C72.4687 12.384 73.0487 12.244 73.7047 12.244C74.3367 12.244 74.9007 12.38 75.3967 12.652C75.9007 12.924 76.2887 13.312 76.5607 13.816C76.8407 14.312 76.9807 14.884 76.9807 15.532ZM75.2407 15.052C75.2327 14.62 75.0767 14.276 74.7727 14.02C74.4687 13.756 74.0967 13.624 73.6567 13.624C73.2407 13.624 72.8887 13.752 72.6007 14.008C72.3207 14.256 72.1487 14.604 72.0847 15.052H75.2407Z" fill="#4DD71D"/>
<defs>
<clipPath id="clip0_620_144">
<rect width="20" height="20" fill="white" transform="translate(5 5)"/>
</clipPath>
</defs>
</svg>
