<svg width="88" height="88" viewBox="0 0 88 88" fill="none" xmlns="http://www.w3.org/2000/svg">
<g filter="url(#filter0_d_620_184)">
<circle cx="44" cy="40" r="20" fill="#FEFEFE"/>
</g>
<g clip-path="url(#clip0_620_184)">
<path d="M51.5 40.1833C51.5 35.6083 47.95 32.5 44 32.5C40.0916 32.5 36.5 35.5417 36.5 40.2333C36 40.5167 35.6666 41.05 35.6666 41.6667V43.3333C35.6666 44.25 36.4166 45 37.3333 45H38.1666V39.9167C38.1666 36.6917 40.775 34.0833 44 34.0833C47.225 34.0833 49.8333 36.6917 49.8333 39.9167V45.8333H43.1666V47.5H49.8333C50.75 47.5 51.5 46.75 51.5 45.8333V44.8167C51.9916 44.5583 52.3333 44.05 52.3333 43.45V41.5333C52.3333 40.95 51.9916 40.4417 51.5 40.1833Z" fill="url(#paint0_linear_620_184)"/>
<path d="M41.5 41.6667C41.9602 41.6667 42.3333 41.2936 42.3333 40.8333C42.3333 40.3731 41.9602 40 41.5 40C41.0397 40 40.6666 40.3731 40.6666 40.8333C40.6666 41.2936 41.0397 41.6667 41.5 41.6667Z" fill="url(#paint1_linear_620_184)"/>
<path d="M46.5 41.6667C46.9602 41.6667 47.3333 41.2936 47.3333 40.8333C47.3333 40.3731 46.9602 40 46.5 40C46.0397 40 45.6666 40.3731 45.6666 40.8333C45.6666 41.2936 46.0397 41.6667 46.5 41.6667Z" fill="url(#paint2_linear_620_184)"/>
<path d="M49 39.1917C48.6 36.8167 46.5333 35 44.0417 35C41.5167 35 38.8 37.0917 39.0167 40.375C41.075 39.5333 42.625 37.7 43.0667 35.4667C44.1583 37.6583 46.4 39.1667 49 39.1917Z" fill="url(#paint3_linear_620_184)"/>
</g>
<defs>
<filter id="filter0_d_620_184" x="0" y="0" width="88" height="88" filterUnits="userSpaceOnUse" color-interpolation-filters="sRGB">
<feFlood flood-opacity="0" result="BackgroundImageFix"/>
<feColorMatrix in="SourceAlpha" type="matrix" values="0 0 0 0 0 0 0 0 0 0 0 0 0 0 0 0 0 0 127 0" result="hardAlpha"/>
<feOffset dy="4"/>
<feGaussianBlur stdDeviation="12"/>
<feComposite in2="hardAlpha" operator="out"/>
<feColorMatrix type="matrix" values="0 0 0 0 0.225833 0 0 0 0 0.225833 0 0 0 0 0.225833 0 0 0 0.1 0"/>
<feBlend mode="normal" in2="BackgroundImageFix" result="effect1_dropShadow_620_184"/>
<feBlend mode="normal" in="SourceGraphic" in2="effect1_dropShadow_620_184" result="shape"/>
</filter>
<linearGradient id="paint0_linear_620_184" x1="35.6666" y1="32.5" x2="53.5885" y2="34.1902" gradientUnits="userSpaceOnUse">
<stop stop-color="#62AEF1"/>
<stop offset="1" stop-color="#0544DA"/>
</linearGradient>
<linearGradient id="paint1_linear_620_184" x1="40.6666" y1="40" x2="42.4618" y2="40.1524" gradientUnits="userSpaceOnUse">
<stop stop-color="#62AEF1"/>
<stop offset="1" stop-color="#0544DA"/>
</linearGradient>
<linearGradient id="paint2_linear_620_184" x1="45.6666" y1="40" x2="47.4618" y2="40.1524" gradientUnits="userSpaceOnUse">
<stop stop-color="#62AEF1"/>
<stop offset="1" stop-color="#0544DA"/>
</linearGradient>
<linearGradient id="paint3_linear_620_184" x1="39.0045" y1="35" x2="49.5848" y2="36.67" gradientUnits="userSpaceOnUse">
<stop stop-color="#62AEF1"/>
<stop offset="1" stop-color="#0544DA"/>
</linearGradient>
<clipPath id="clip0_620_184">
<rect width="20" height="20" fill="white" transform="translate(34 30)"/>
</clipPath>
</defs>
</svg>
