<svg width="36" height="36" viewBox="0 0 36 36" fill="none" xmlns="http://www.w3.org/2000/svg">
<path d="M33 5.99854C31.83 6.69304 29.4825 7.63954 28.1025 7.91254C28.062 7.92304 28.029 7.93653 27.99 7.94703C26.7705 6.74403 25.0995 5.99854 23.25 5.99854C19.5225 5.99854 16.5 9.02103 16.5 12.7485C16.5 12.945 16.4835 13.3065 16.5 13.4985C11.4705 13.4985 7.6425 10.8645 4.8975 7.49854C4.599 8.24854 4.4685 9.43354 4.4685 10.5465C4.4685 12.648 6.111 14.712 8.6685 15.9915C8.1975 16.113 7.6785 16.2 7.1385 16.2C6.267 16.2 5.3445 15.9705 4.5 15.2745C4.5 15.3 4.5 15.324 4.5 15.351C4.5 18.288 7.617 20.2875 10.389 20.844C9.8265 21.1755 8.6925 21.2085 8.139 21.2085C7.749 21.2085 6.369 21.03 6 20.961C6.771 23.3685 9.552 24.7215 12.2025 24.7695C10.1295 26.3955 8.691 26.9985 4.446 26.9985H3C5.682 28.7175 9.0975 30 12.5205 30C23.6655 30 30 21.5055 30 13.4985C30 13.3695 29.997 13.0995 29.9925 12.828C29.9925 12.801 30 12.7755 30 12.7485C30 12.708 29.988 12.669 29.988 12.6285C29.9835 12.4245 29.979 12.234 29.9745 12.135C31.1595 11.28 32.187 10.2135 33 8.99854C31.9125 9.48154 30.7455 9.80554 29.52 9.95254C30.771 9.20254 32.5485 7.41454 33 5.99854Z" fill="#0544DA"/>
</svg>
